<svg width="35" height="38" viewBox="0 0 35 38" fill="none" xmlns="http://www.w3.org/2000/svg">
<path d="M0 0H31C33.2091 0 35 1.79086 35 4V37.5H0V0Z" fill="#CE0000"/>
<path d="M26.0938 12.1094H8.90625" stroke="white" stroke-width="3" stroke-linecap="round" stroke-linejoin="round"/>
<path d="M15.1562 16.4062V22.6562" stroke="white" stroke-width="3" stroke-linecap="round" stroke-linejoin="round"/>
<path d="M19.8438 16.4062V22.6562" stroke="white" stroke-width="3" stroke-linecap="round" stroke-linejoin="round"/>
<path d="M24.5312 12.1094V26.5625C24.5312 26.7697 24.4489 26.9684 24.3024 27.1149C24.1559 27.2614 23.9572 27.3438 23.75 27.3438H11.25C11.0428 27.3438 10.8441 27.2614 10.6976 27.1149C10.5511 26.9684 10.4688 26.7697 10.4688 26.5625V12.1094" stroke="white" stroke-width="3" stroke-linecap="round" stroke-linejoin="round"/>
<path d="M21.4062 12.1094V9.76562C21.4062 9.35122 21.2416 8.9538 20.9486 8.66077C20.6556 8.36774 20.2582 8.20312 19.8438 8.20312H15.1562C14.7418 8.20312 14.3444 8.36774 14.0514 8.66077C13.7584 8.9538 13.5938 9.35122 13.5938 9.76562V12.1094" stroke="white" stroke-width="3" stroke-linecap="round" stroke-linejoin="round"/>
</svg>
