<svg width="35" height="38" viewBox="0 0 35 38" fill="none" xmlns="http://www.w3.org/2000/svg">
<path d="M0 0.5H35V34C35 36.2091 33.2091 38 31 38H0V0.5Z" fill="#797979"/>
<path d="M17.5 22.375H14.375V19.25L23.75 9.875L26.875 13L17.5 22.375Z" stroke="white" stroke-width="2" stroke-linecap="round" stroke-linejoin="round"/>
<path d="M21.4062 12.2188L24.5312 15.3438" stroke="white" stroke-width="2" stroke-linecap="round" stroke-linejoin="round"/>
<path d="M26.0938 18.4688V27.0625C26.0938 27.2697 26.0114 27.4684 25.8649 27.6149C25.7184 27.7614 25.5197 27.8438 25.3125 27.8438H9.6875C9.4803 27.8438 9.28159 27.7614 9.13507 27.6149C8.98856 27.4684 8.90625 27.2697 8.90625 27.0625V11.4375C8.90625 11.2303 8.98856 11.0316 9.13507 10.8851C9.28159 10.7386 9.4803 10.6562 9.6875 10.6562H18.2812" stroke="white" stroke-width="2" stroke-linecap="round" stroke-linejoin="round"/>
</svg>
